<svg width="24" height="24" viewBox="0 0 24 24" fill="none" xmlns="http://www.w3.org/2000/svg">
<path d="M19.1718 6.42178C19.6124 5.98115 19.6124 5.26865 19.1718 4.83271C18.7312 4.39678 18.0187 4.39209 17.5827 4.83271L12.0046 10.4108L6.42178 4.82803C5.98115 4.3874 5.26865 4.3874 4.83271 4.82803C4.39678 5.26865 4.39209 5.98115 4.83271 6.41709L10.4108 11.9952L4.82803 17.578C4.3874 18.0187 4.3874 18.7312 4.82803 19.1671C5.26865 19.603 5.98115 19.6077 6.41709 19.1671L11.9952 13.589L17.578 19.1718C18.0187 19.6124 18.7312 19.6124 19.1671 19.1718C19.603 18.7312 19.6077 18.0187 19.1671 17.5827L13.589 12.0046L19.1718 6.42178Z" fill="#C5C5D3"/>
</svg>
