<svg width="110" height="110" viewBox="0 0 110 110" fill="none" xmlns="http://www.w3.org/2000/svg">
<g clip-path="url(#clip0_1365_303)">
<path d="M100.91 3L90.3298 9.86L82.9998 17.6L77.6398 19.71L78.7698 16.5L74.3198 16.83L72.4798 13.66L68.2698 16.59L65.7698 12.77L61.7698 14.18L59.3598 16.59L56.9598 13.94L53.8398 12.74L52.3998 15.14L47.5898 14.14L45.6698 16.55H42.7398L41.5398 19L35.9998 18.5L36.5298 25L28.3198 12.5L16.3198 4.81L7.88978 0L4.27979 1.2L7.40978 16.59L15.8198 26.92L28.3198 33.17L24.2298 35.57L25.9198 38.94L21.3698 46.77H24.9998L23.7298 52.64L22.4398 60.27L25.8998 59.61L23.9998 64.49L25.6898 67.3V74.3H28.9998V80.7H31.8798L33.5698 86.08L36.4498 87.52L38.1298 94.73L35.0098 102.67H39.3398L38.1298 105.55L42.2198 105.73L46.3098 106.73L49.4198 106.26L51.1098 108.17L53.9998 106.8L56.2398 108.89L60.8098 108.32L65.2098 109.78L69.9398 108.56L74.7098 110L76.9998 108.32L81.8798 107.32L80.5298 97.87L72.0698 96L67.0698 92.1L59.3698 88.49L51.6798 86.09L44.6798 76.96L39.6798 65.9L40.8798 46.28L44.2398 40.42L45.6898 36.82L59.3798 33.21L65.1598 30.09L71.8898 32.25H79.3398L86.7898 37.54L90.0898 44L91.0898 54.54L89.6498 63.23L93.0998 68V64.49L95.3798 60.81L93.0998 58.41L96.0998 55.52L95.3798 52.88L97.5398 51.2L93.0998 48.2H97.5398L94.8998 45.68L93.0998 44L95.3798 40.63L90.8898 35.1V30.28L98.2698 25.48L102.83 18.48L105.72 3H100.91ZM18.4598 23.32L10.5298 15L8.72978 7.09L15.2198 12.74L21.5898 21.15L28.1998 28.36L18.4598 23.32ZM97.5398 12.74L93.0998 17.6L89.8098 26.6L87.4798 24.88L85.9098 23.72L86.2698 22.95L89.8098 15.42L100.31 7.13L97.5398 12.74Z" fill="#2B2B2B"/>
<path d="M89.2498 73.3099L86.8498 78.1199L84.0798 73.7899L80.8398 73.5499L75.0698 76.1999L77.2298 69.9999L82.2298 66.6299H87.9998L89.5698 67.2899L86.7698 62.4199L80.7698 53.1699V49.7599L83.4098 44.4699H88.4098L84.8098 38.9399L79.2798 34.6099L73.5098 34.8499L64.1298 33.1699L59.5598 35.8099L48.2698 38.9399L43.1098 47.3899L42.2598 55.9999V66.0999L48.2598 77.8799L52.9998 83.7299L65.6298 88.7299L71.6298 92.8199L77.8298 95.9999H84.5698L88.4098 93.5399L93.3398 86.3299L87.9298 86.5699L83.1198 87.9999H77.3498L73.9998 86.5299L67.7498 78.8399L76.1598 85.3299H83.5998L86.7298 83.8099L86.9998 79.4899L89.3498 83.8099H93.3498L94.9098 79.5599L92.2098 72.7599L89.2498 73.3099ZM68.5798 58.5299L64.9998 54.7999L64.6198 55.9199L62.7198 58.5299L58.9698 57.5299L57.2298 54.8499L51.5598 52.2399L59.5598 51.5199L66.8898 52.3899L68.5798 58.5299ZM63.6498 47.2399L56.4398 46.2399L48.9898 48.2399L56.1998 43.5099H63.1998L67.5298 47.7799L70.1698 54.5299L63.6498 47.2399Z" fill="#2B2B2B"/>
<path d="M84.6998 55.4101L85.6598 57.8801L88.1098 61.0501L88.7998 55.0901L88.6398 50.2001L88.2298 47.1901L86.4698 45.5801L84.5298 47.1101L82.0098 50.0401L87.2298 49.4301L85.9098 52.1101L85.8898 54.5301L84.6998 55.4101Z" fill="#2B2B2B"/>
<path d="M77.2798 73.6801L78.5598 70.5801L82.3898 68.5801H86.8598H89.5998L91.1498 69.4901L91.8798 71.1301L87.8598 72.2401L86.8298 74.5801L85.4098 72.2401H82.9398H80.4798L77.2798 73.6801Z" fill="#2B2B2B"/>
</g>
<defs>
<clipPath id="clip0_1365_303">
<rect width="110" height="110" fill="white"/>
</clipPath>
</defs>
</svg>
