<svg width="111" height="110" viewBox="0 0 111 110" fill="none" xmlns="http://www.w3.org/2000/svg">
<path d="M60.4569 75.1974L38.3953 73.374V45.4623C42.1188 46.5844 45.4233 47.1455 48.309 47.1455C52.7772 47.1455 56.3145 46.1169 58.9209 44.0597C61.6205 42.0026 62.9702 39.2909 62.9702 35.9247C62.9702 32.7455 61.9463 30.174 59.8984 28.2104C57.8504 26.1532 55.2906 25.1247 52.2187 25.1247C48.9606 25.1247 46.1215 26.2935 43.7012 28.6312C41.3741 30.8753 40.1174 33.6805 39.9312 37.0468L21.5 29.4727C21.9654 24.2364 23.7806 19.4675 26.9456 15.1662C30.1105 10.7714 34.1133 7.31169 38.9538 4.78701C43.8874 2.26234 49.1003 1 54.5924 1C61.5739 1 67.7177 2.58961 73.0236 5.76883C78.3296 8.94805 82.3788 13.3896 85.1715 19.0935C88.0572 24.7974 89.5 31.2493 89.5 38.4494C89.5 43.2182 88.0572 47.8468 85.1715 52.3351C82.3788 56.7299 78.7019 60.2831 74.1407 62.9948C69.6725 65.7065 65.0181 67.0623 60.1776 67.0623L60.4569 75.1974ZM49.5657 109C45.0975 109 41.3741 107.364 38.3953 104.091C35.4165 100.818 33.9271 96.9844 33.9271 92.5896C33.9271 89.5974 34.6718 86.8857 36.1612 84.4545C37.7437 81.9299 39.745 79.9662 42.1653 78.5636C44.6786 77.161 47.3316 76.4597 50.1242 76.4597C54.127 76.4597 57.5246 77.8623 60.3172 80.6675C63.2029 83.4727 64.6458 87.2597 64.6458 92.0286C64.6458 96.7974 63.2029 100.818 60.3172 104.091C57.5246 107.364 53.9408 109 49.5657 109Z" fill="#2A2A2A"/>
<circle cx="11" cy="11.5" r="2.5" fill="#2A2A2A"/>
<circle cx="28" cy="52.5" r="2.5" fill="#2A2A2A"/>
<circle cx="20" cy="65.5" r="1.5" fill="#2A2A2A"/>
<circle cx="18" cy="85.5" r="2.5" fill="#2A2A2A"/>
<circle cx="98" cy="11.5" r="2.5" fill="#2A2A2A"/>
<circle cx="87" cy="70.5" r="2.5" fill="#2A2A2A"/>
<circle cx="74" cy="95.5" r="2.5" fill="#2A2A2A"/>
<circle cx="86" cy="86.5" r="1.5" fill="#2A2A2A"/>
<circle cx="18" cy="36.5" r="1.5" fill="#2A2A2A"/>
<circle cx="27" cy="1.5" r="1.5" fill="#2A2A2A"/>
<circle cx="85" cy="7.5" r="1.5" fill="#2A2A2A"/>
<circle cx="100" cy="48.5" r="1.5" fill="#2A2A2A"/>
<circle cx="94" cy="27.5" r="1.5" fill="#2A2A2A"/>
<circle cx="29" cy="70.5" r="1.5" fill="#2A2A2A"/>
<path d="M15.033 24.0724L15.0971 25.524L16.4975 25.9117L15.1367 26.4212L15.2008 27.8729L14.2956 26.7361L12.9348 27.2457L13.7363 26.0336L12.8311 24.8968L14.2316 25.2845L15.033 24.0724Z" fill="#2A2A2A"/>
<path d="M20.8137 6.71975L21.9319 8.44171L23.9152 7.91031L22.6231 9.50595L23.7413 11.2279L21.8245 10.4921L20.5324 12.0877L20.6398 10.0374L18.723 9.30155L20.7062 8.77014L20.8137 6.71975Z" fill="#2A2A2A"/>
<path d="M90.2297 55.7315L91.348 57.4534L93.3312 56.922L92.0391 58.5177L93.1573 60.2396L91.2405 59.5038L89.9484 61.0995L90.0558 59.0491L88.139 58.3133L90.1222 57.7819L90.2297 55.7315Z" fill="#2A2A2A"/>
<path d="M100.648 72.6894L100.671 74.0684L102.297 74.7308L100.686 74.9206L100.71 76.2996L99.6906 75.0379L98.0797 75.2277L99.0605 74.2582L98.0411 72.9965L99.6667 73.6589L100.648 72.6894Z" fill="#2A2A2A"/>
<path d="M69.1222 75.9118L69.146 77.2908L70.7716 77.9532L69.1607 78.143L69.1846 79.522L68.1652 78.2603L66.5543 78.4501L67.5351 77.4806L66.5157 76.2189L68.1414 76.8813L69.1222 75.9118Z" fill="#2A2A2A"/>
<path d="M30.6784 78.937L31.6925 79.8717L33.294 79.1529L32.3193 80.4494L33.3334 81.3841L31.7168 81.2507L30.7421 82.5472L30.7178 81.1682L29.1012 81.0348L30.7027 80.316L30.6784 78.937Z" fill="#2A2A2A"/>
</svg>
