<svg width="111" height="110" viewBox="0 0 111 110" fill="none" xmlns="http://www.w3.org/2000/svg">
<g clip-path="url(#clip0_1365_168)">
<path d="M15.45 21.63L21.47 15.31L23.46 7.85L20.61 3.65L17.52 0L12.25 0.28L5.56 3.91L0.5 13.45L0.83 19.96L9.82 25.2L15.45 21.63Z" fill="#2A2A2A"/>
<path d="M19.15 60.5L27.86 60L35.86 59.57L38.33 56.85L44.97 52.41L47.87 47.19L52.4 47L57 49.08L60.55 56.52L65.55 51.34L63.25 47.66L54.83 43.21L55.29 36.65L57.79 33.79L59.79 26.87L57.58 19.64L57.63 10.24L52.21 1.66999L41.59 0.609985L26.43 3.87999L23.15 1.59999L23.31 4.85999L26.68 8.75999L23.85 15.45L20.73 21.61L12.8 26.67L9.68004 27.67L4.55004 25.48L6.50004 28.1L3.04004 38.1L3.55004 48.1L6.37004 57L12.68 57.44L19.15 60.5ZM6.84004 41.94L10.65 38.94L13.65 43.13L17.79 41.38L22.13 38.32L29.42 40.75L33.91 36.32L38.13 36.09L44.92 37.09L51.76 35.35L48.85 42L40.31 48.23L32.08 54L21.5 57.38L10.14 52.28L6.84004 41.94Z" fill="#2A2A2A"/>
<path d="M17.58 63.59L13.34 60.68L7.75 59.9L9.33 64.98L12.92 68.06L17 67.84L21.8 63.36L17.58 63.59Z" fill="#2A2A2A"/>
<path d="M77.5002 49.59L76.5602 31.12L74.4602 28.79L74.5002 47.71L59.7002 68.39L40.2002 77.2L43.8802 79.46L64.6702 69.89L77.5002 49.59Z" fill="#2A2A2A"/>
<path d="M93.5999 64.79L92.6999 47L87.6999 45.07L89.9399 63.07L77.0699 82.7L57.7199 89.19C57.7199 89.19 46.7199 81.48 46.3599 81.5L48.8399 86L61.0099 94L80.9099 85.3L93.5999 64.79Z" fill="#2A2A2A"/>
<path d="M39.75 68.38L34.34 63.22L29.86 63.47L23.67 63.8L20.9 66.54L19.25 70.44L21.32 74.82L30.61 75.54L34.66 74.78L38.44 76.35L46.63 71.06L39.75 68.38Z" fill="#2A2A2A"/>
<path d="M54.8698 51.22L49.6598 50.14L45.7998 54.84L42.1298 58.04L41.0298 62.32L44.2698 66.36L48.4298 67.64L51.2198 66.53L55.6798 67.25L58.2698 66.29L60.0298 61.84L57.5398 58.43L56.7398 54.25L54.8698 51.22Z" fill="#2A2A2A"/>
<path d="M87.7301 61.02L87.6301 59.12L78.7801 51.43L75.3701 56.92L85.9801 65.61L87.7301 61.02Z" fill="#2A2A2A"/>
<path d="M66.59 71.42L62.71 72.99L68.07 77.06L73.18 81.41L75.76 80.32L76.95 77.67L67.65 68.78L66.59 71.42Z" fill="#2A2A2A"/>
<path d="M47.0801 79.97L58.1401 86.99L61.2201 85.19L59.8601 83.22L52.7601 77.34L47.0801 79.97Z" fill="#2A2A2A"/>
<path d="M58.8501 38.62L59.5601 42.25L63.7001 43.87L66.8501 45.33L69.5201 49.07L72.6901 45.22L72.5501 42.37L71.5301 39.87L72.0301 32.19L69.1901 29.07L64.4001 28.31L62.5701 29.43L62.7501 32.89L60.1701 36.71L58.8501 38.62Z" fill="#2A2A2A"/>
<path d="M62.5098 22.35L64.9098 25.01L68.8498 26.13L72.3798 29.41L73.3298 26.7L72.2598 23.19L72.8998 18.15L71.0398 12.84L69.5998 11.79L69.4898 9.58001L66.4198 8.39001L62.6698 9.95001L60.0898 13.63L61.1298 16.54L62.5098 22.35Z" fill="#2A2A2A"/>
<path d="M86.31 53.88L86.26 45.15L78.75 35.23L79.21 44.19L86.31 53.88Z" fill="#2A2A2A"/>
<path d="M50.0698 90.02L50.1898 92.46L50.3498 95.58L52.8298 97.63L52.9798 100.61L56.4698 101.65L59.4598 99.45L57.8898 95.86L50.0698 90.02Z" fill="#2A2A2A"/>
<path d="M70.9901 95.56L67.3401 93.71L61.8301 97.28L62.0901 102.3L63.3001 108.09L65.7701 109.86L70.2001 109.63L73.3101 110L76.2701 105.21L75.8801 97.47L70.9901 95.56Z" fill="#2A2A2A"/>
<path d="M91.4702 85.19L88.3102 85.36L83.8102 82.75L81.4102 87.37L79.4502 87.88L81.7102 93.34L81.8802 96.74L85.6202 101.44L90.8902 102.52L95.3202 98.6L97.5502 95.76L97.2402 89.65L91.4702 85.19Z" fill="#2A2A2A"/>
<path d="M110.5 72.45L109.66 68.96L104.4 66.79L99 67.08L94.86 66.25L94.32 68.48L92.73 71.1L94.91 75.07L95.83 79.99L99.93 82.69L105.78 83.47L109.67 79.44L109.44 77.55L110.5 72.45Z" fill="#2A2A2A"/>
<path d="M98.9902 61.64L101.15 62.61L103.99 61.37L108.21 58.55L108.86 55.66L107.01 53.17L103.25 49.42L99.3002 49.64L97.2502 50.84L95.2202 49.86L94.6602 54.52L96.6902 58.09L98.9902 61.64Z" fill="#2A2A2A"/>
<path d="M71.1802 92.18L73.8102 94.49L77.1502 95.26L79.0102 92.85L76.8802 89.97L71.1802 92.18Z" fill="#2A2A2A"/>
<path d="M91.06 82.36L93.02 76.8L91.14 73.5L86.75 80.68L88.16 82.51L91.06 82.36Z" fill="#2A2A2A"/>
<path d="M95.9399 64.12L97.6999 64.97L97.5699 62.4L94.9399 59.95L95.9399 64.12Z" fill="#2A2A2A"/>
</g>
<defs>
<clipPath id="clip0_1365_168">
<rect width="110" height="110" fill="white" transform="translate(0.5)"/>
</clipPath>
</defs>
</svg>
