<svg width="21" height="20" viewBox="0 0 21 20" fill="none" xmlns="http://www.w3.org/2000/svg">
<g clip-path="url(#clip0_1717_2)">
<path d="M10.5 1.875C12.6549 1.875 14.7215 2.73102 16.2452 4.25476C17.769 5.77849 18.625 7.84512 18.625 10C18.625 12.1549 17.769 14.2215 16.2452 15.7452C14.7215 17.269 12.6549 18.125 10.5 18.125C8.34512 18.125 6.27849 17.269 4.75476 15.7452C3.23102 14.2215 2.375 12.1549 2.375 10C2.375 7.84512 3.23102 5.77849 4.75476 4.25476C6.27849 2.73102 8.34512 1.875 10.5 1.875ZM10.5 20C13.1522 20 15.6957 18.9464 17.5711 17.0711C19.4464 15.1957 20.5 12.6522 20.5 10C20.5 7.34784 19.4464 4.8043 17.5711 2.92893C15.6957 1.05357 13.1522 0 10.5 0C7.84784 0 5.3043 1.05357 3.42893 2.92893C1.55357 4.8043 0.5 7.34784 0.5 10C0.5 12.6522 1.55357 15.1957 3.42893 17.0711C5.3043 18.9464 7.84784 20 10.5 20ZM10.5 5C9.98047 5 9.5625 5.41797 9.5625 5.9375V10.3125C9.5625 10.832 9.98047 11.25 10.5 11.25C11.0195 11.25 11.4375 10.832 11.4375 10.3125V5.9375C11.4375 5.41797 11.0195 5 10.5 5ZM11.75 13.75C11.75 13.4185 11.6183 13.1005 11.3839 12.8661C11.1495 12.6317 10.8315 12.5 10.5 12.5C10.1685 12.5 9.85054 12.6317 9.61612 12.8661C9.3817 13.1005 9.25 13.4185 9.25 13.75C9.25 14.0815 9.3817 14.3995 9.61612 14.6339C9.85054 14.8683 10.1685 15 10.5 15C10.8315 15 11.1495 14.8683 11.3839 14.6339C11.6183 14.3995 11.75 14.0815 11.75 13.75Z" fill="#FFAC45"/>
</g>
<defs>
<clipPath id="clip0_1717_2">
<rect width="20" height="20" fill="white" transform="translate(0.5)"/>
</clipPath>
</defs>
</svg>
