<svg width="446" height="72" viewBox="0 0 446 72" fill="none" xmlns="http://www.w3.org/2000/svg">
<g clip-path="url(#clip0_1_12)">
<path d="M112.973 40.0905L128.755 39.7147V50.9538L101.393 51.0092L101.608 10.5547L112.814 9.8584L112.977 40.0905H112.973Z" fill="white"/>
<path d="M151.704 50.7915V48.7581C149.872 50.6491 147.16 51.5946 143.572 51.5946C141.203 51.5946 139.029 50.9062 137.053 49.5335C135.078 48.1608 133.517 46.3133 132.366 43.995C131.216 41.6768 130.642 39.1805 130.642 36.5023C130.642 33.824 131.263 31.3911 132.502 29.0926C133.74 26.7942 135.365 24.9546 137.376 23.5819C139.387 22.2091 141.486 21.5208 143.68 21.5208C147.272 21.5208 149.836 22.4662 151.381 24.3572V22.3792H160.648L161.942 50.7955H151.708L151.704 50.7915ZM150.143 40.2249C151.039 39.315 151.489 38.0768 151.489 36.5062C151.489 34.9357 151.011 33.7608 150.063 32.8667C149.111 31.9766 147.881 31.5295 146.372 31.5295C144.97 31.5295 143.795 31.9924 142.843 32.9221C141.892 33.8517 141.418 35.0109 141.418 36.3994C141.418 37.2223 141.633 38.0333 142.063 38.8324C142.493 39.6355 143.094 40.2961 143.867 40.8104C144.639 41.3287 145.511 41.5858 146.479 41.5858C148.024 41.5858 149.243 41.1309 150.143 40.221V40.2249Z" fill="white"/>
<path d="M189.729 42.0684L190.374 50.7915H165.434L165.163 42.9783L175.234 31.4187L165.968 31.7392V22.1062H188.913L189.884 30.9361L180.459 42.3888L189.725 42.0684H189.729Z" fill="white"/>
<path d="M223.502 21.6277L215.37 49.7196C213.897 54.5697 211.87 58.1657 209.285 60.5037C206.701 62.8418 203.738 64.0088 200.397 64.0088C199.067 64.0088 197.57 63.7872 195.901 63.3402C194.233 62.8932 192.624 62.3314 191.079 61.6549L195.228 51.1675C195.551 51.6659 196.316 52.2119 197.518 52.8013C198.721 53.3908 199.665 53.6835 200.346 53.6835C201.492 53.6835 202.436 53.371 203.173 52.7459C203.91 52.1209 204.511 51.2545 204.977 50.1508L191.728 22.4861L203.308 22.3793L208.748 36.6132L212.411 22.2725L223.506 21.6316L223.502 21.6277Z" fill="white"/>
<path d="M254.475 40.0905L270.256 39.7147V50.9538L242.895 51.0092L243.11 10.5547L254.316 9.8584L254.479 40.0905H254.475Z" fill="white"/>
<path d="M288.705 50.9776C287.252 51.389 285.484 51.5947 283.401 51.5947C281.462 51.5947 279.746 51.1319 278.256 50.2022C276.767 49.2765 275.608 47.975 274.784 46.2976C273.956 44.6202 273.545 42.6936 273.545 40.5178L273.653 12.9046L284.21 10.3372L284.265 36.9851C284.265 37.9859 284.508 38.8246 284.994 39.5011C285.48 40.1776 286.117 40.5178 286.905 40.5178C287.945 40.5178 288.737 40.2172 289.275 39.6079L291.807 49.2923C291.198 50.0044 290.163 50.5701 288.709 50.9776H288.705Z" fill="white"/>
<path d="M313.239 50.7915V48.7581C311.408 50.6491 308.696 51.5946 305.108 51.5946C302.738 51.5946 300.564 50.9062 298.589 49.5335C296.614 48.1608 295.053 46.3133 293.902 43.995C292.751 41.6768 292.178 39.1805 292.178 36.5023C292.178 33.824 292.799 31.3911 294.037 29.0926C295.276 26.7942 296.901 24.9546 298.912 23.5819C300.923 22.2091 303.021 21.5208 305.215 21.5208C308.807 21.5208 311.372 22.4662 312.917 24.3572V22.3792H322.183L323.477 50.7955H313.243L313.239 50.7915ZM311.678 40.2249C312.574 39.315 313.024 38.0768 313.024 36.5062C313.024 34.9357 312.546 33.7608 311.599 32.8667C310.647 31.9766 309.416 31.5295 307.907 31.5295C306.505 31.5295 305.331 31.9924 304.379 32.9221C303.427 33.8517 302.953 35.0109 302.953 36.3994C302.953 37.2223 303.168 38.0333 303.599 38.8324C304.029 39.6355 304.63 40.2961 305.402 40.8104C306.175 41.3287 307.047 41.5858 308.015 41.5858C309.56 41.5858 310.778 41.1309 311.678 40.221V40.2249Z" fill="white"/>
<path d="M367.48 23.6334C369.312 25.2553 370.244 27.6211 370.28 30.7226L370.064 50.2022L359.723 51.0052L359.615 34.738C359.615 33.3098 359.329 32.2417 358.755 31.5257C358.182 30.8136 357.389 30.4536 356.386 30.4536C355.382 30.4536 354.646 30.7859 354.068 31.4426C353.495 32.1032 353.116 33.021 352.937 34.1999L352.774 50.843L342.432 50.9498L342.325 35.272C342.325 33.8439 342.03 32.7679 341.437 32.036C340.844 31.3041 340.063 30.9402 339.095 30.9402C337.98 30.9402 337.148 31.3595 336.591 32.1982C336.033 33.0369 335.719 34.2039 335.647 35.7032L336.133 50.9538H325.628V22.8065L335.217 22.4861L335.273 23.9854C336.24 23.2734 337.391 22.7195 338.721 22.3279C340.051 21.9362 341.413 21.7384 342.815 21.7384C346.442 21.7384 349.134 22.8105 350.894 24.9507C351.826 23.8114 353.128 22.9015 354.801 22.221C356.469 21.5446 358.238 21.2043 360.105 21.2043C363.191 21.2043 365.652 22.0153 367.484 23.6373L367.48 23.6334Z" fill="white"/>
<path d="M393.603 50.7915V48.7581C391.771 50.6491 389.059 51.5946 385.471 51.5946C383.102 51.5946 380.928 50.9062 378.953 49.5335C376.977 48.1608 375.416 46.3133 374.266 43.995C373.115 41.6768 372.541 39.1805 372.541 36.5023C372.541 33.824 373.163 31.3911 374.401 29.0926C375.639 26.7942 377.264 24.9546 379.275 23.5819C381.286 22.2091 383.385 21.5208 385.579 21.5208C389.171 21.5208 391.735 22.4662 393.28 24.3572V22.3792H402.547L403.841 50.7955H393.607L393.603 50.7915ZM392.042 40.2249C392.938 39.315 393.388 38.0768 393.388 36.5062C393.388 34.9357 392.91 33.7608 391.962 32.8667C391.011 31.9766 389.78 31.5295 388.271 31.5295C386.869 31.5295 385.694 31.9924 384.743 32.9221C383.791 33.8517 383.317 35.0109 383.317 36.3994C383.317 37.2223 383.532 38.0333 383.962 38.8324C384.392 39.6355 384.994 40.2961 385.766 40.8104C386.539 41.3287 387.411 41.5858 388.378 41.5858C389.923 41.5858 391.142 41.1309 392.042 40.221V40.2249Z" fill="white"/>
<path d="M427.487 32.1706C426.193 31.2805 425.01 30.6198 423.931 30.1926C422.852 29.7653 421.526 29.5517 419.945 29.5517C417.611 29.5517 416.445 30.1214 416.445 31.2647C416.445 31.7275 416.687 32.0401 417.173 32.2023C417.659 32.3644 418.671 32.495 420.216 32.6018C423.481 32.851 426.169 33.7095 428.268 35.1693C430.37 36.633 431.417 38.6664 431.417 41.2695C431.417 43.0893 430.852 44.7746 429.721 46.3253C428.59 47.8761 427.029 49.1183 425.034 50.044C423.043 50.9697 420.805 51.4365 418.328 51.4365C415.851 51.4365 413.534 50.9895 411.272 50.0994C409.01 49.2093 407.25 48.0304 405.991 46.5666L411.324 40.0392C412.22 40.7869 413.45 41.404 415.015 41.8866C416.576 42.3693 417.914 42.6106 419.029 42.6106C419.997 42.6106 420.769 42.4326 421.347 42.0765C421.92 41.7205 422.207 41.2379 422.207 40.6326C422.207 40.1697 422.008 39.877 421.613 39.7504C421.219 39.6277 420.283 39.4932 418.814 39.3508C415.115 38.888 412.295 37.9781 410.356 36.6212C408.417 35.2642 407.449 33.484 407.449 31.2686C407.449 29.5201 408.014 27.906 409.145 26.4264C410.276 24.9469 411.793 23.768 413.697 22.8937C415.6 22.0194 417.647 21.5842 419.837 21.5842C422.028 21.5842 424.21 21.9838 426.492 22.7869C428.773 23.5899 430.557 24.6146 431.851 25.8647L427.487 32.1785V32.1706Z" fill="white"/>
<path d="M434.181 8.87736H431.979V7.99121H437.546V8.87736H435.344V12.3785H434.185V8.87736H434.181ZM438.183 7.99121H439.971L442.105 11.1481L444.24 7.99121H446.004V12.3824H444.869L444.905 8.92484L442.54 12.3824H441.647L439.306 8.92484L439.33 12.3824H438.195V7.99121H438.183Z" fill="white"/>
<path d="M36.2375 72C56.2509 72 72.475 55.8823 72.475 36C72.475 16.1178 56.2509 0 36.2375 0C16.2241 0 0 16.1178 0 36C0 55.8823 16.2241 72 36.2375 72Z" fill="white"/>
<path d="M36.2375 67.8144C27.6838 67.8144 19.6399 64.5032 13.591 58.494C7.54216 52.4847 4.20911 44.4935 4.20911 35.996C4.20911 27.4984 7.54216 19.5072 13.591 13.4979C19.6399 7.4887 27.6838 4.17749 36.2375 4.17749C44.7911 4.17749 52.8351 7.4887 58.8839 13.4979C64.9328 19.5072 68.2659 27.4984 68.2659 35.996C68.2659 44.4935 64.9328 52.4847 58.8839 58.494C52.8351 64.5032 44.7911 67.8144 36.2375 67.8144ZM36.2375 5.07156C19.0705 5.07551 5.10907 18.9494 5.10907 35.9999C5.10907 53.0505 19.0744 66.9243 36.2375 66.9243C53.4005 66.9243 67.3659 53.0505 67.3659 35.9999C67.3659 18.9494 53.4005 5.07551 36.2375 5.07551V5.07156Z" fill="#191919"/>
<path d="M13.826 50.0004L14.8653 51.5235L13.7503 52.2356L12.0101 49.5613L16.0361 47.0176L16.8166 48.0699L13.826 50.0004Z" fill="#191919"/>
<path d="M17.0515 56.0809L17.613 55.1513L16.6095 54.0277L15.5622 54.4866L14.726 53.371L19.5244 51.6106L20.4324 52.5521L18.1466 56.8998L17.0515 56.077V56.0809ZM17.8798 53.466L18.3139 53.9921L18.9152 53.0071L17.8758 53.466H17.8798Z" fill="#191919"/>
<path d="M25.3423 56.1204L24.6534 57.1608L21.6947 57.9639L23.3552 58.9687L22.6185 60.0923L19.3094 57.9481L20.0182 56.9037L22.8216 56.0848L21.4558 55.0879L22.1447 54.0237L25.3463 56.1164L25.3423 56.1204Z" fill="#191919"/>
<path d="M30.0094 58.3557L27.5365 60.0647L26.8755 61.9003L25.5932 61.4533L26.3657 59.4911L25.6012 56.9078L27.0945 56.884L27.4807 58.5812L28.8904 57.5843L30.0134 58.3517L30.0094 58.3557Z" fill="#191919"/>
<path d="M33.9995 62.2049L35.8473 62.2959L35.7477 63.6093L32.55 63.3798L32.9284 58.6523L34.2425 58.6682L33.9956 62.2009L33.9995 62.2049Z" fill="#191919"/>
<path d="M38.4715 62.2048L40.3073 61.9912L40.4307 63.3006L37.237 63.6013L36.8229 58.8778L38.1211 58.676L38.4675 62.2009L38.4715 62.2048Z" fill="#191919"/>
<path d="M45.3964 62.1573L44.823 61.2356L43.3576 61.6035L43.2899 62.7389L41.9081 62.9644L42.5373 57.9204L43.7956 57.5525L46.6309 61.5679L45.3925 62.1573H45.3964ZM43.4412 60.2228L44.1102 60.0804L43.5049 59.0954L43.4412 60.2228Z" fill="#191919"/>
<path d="M52.7953 58.2249L51.6842 58.9608L50.6011 57.3981L50.9515 59.3524L50.0237 59.9142L48.391 58.6997L49.3388 60.3296L48.1839 60.9546L45.8026 56.868L47.057 56.1915L49.3786 57.8372L48.9206 54.9849L50.1591 54.2808L52.7953 58.2249Z" fill="#191919"/>
<path d="M56.6021 54.9021L55.6623 54.3522L54.5394 55.357L55.0093 56.3935L53.8943 57.2322L52.0824 52.477L53.0262 51.5671L57.4185 53.8063L56.5982 54.9021H56.6021ZM53.966 54.099L54.4916 53.6638L53.4961 53.0744L53.966 54.103V54.099Z" fill="#191919"/>
<path d="M58.641 51.9665C58.3265 52.1801 58.0039 52.3186 57.6614 52.3819L57.2831 51.3731C57.7968 51.1872 58.1711 50.9182 58.4101 50.5582C58.5017 50.4197 58.5495 50.2891 58.5534 50.1705C58.5534 50.0518 58.5136 49.9647 58.422 49.9014C58.3304 49.8421 58.2309 49.85 58.1234 49.9291C58.0159 50.0083 57.8725 50.1546 57.6893 50.3722C57.3827 50.7362 57.0641 50.9617 56.7416 51.0527C56.419 51.1436 56.0845 51.0764 55.742 50.8469C55.4832 50.6768 55.2921 50.4592 55.1726 50.1982C55.0531 49.9371 55.0093 49.6562 55.0412 49.3555C55.077 49.0549 55.1885 48.7621 55.3797 48.4773C55.5629 48.2003 55.8018 47.9669 56.0925 47.7691C56.3832 47.5713 56.6978 47.4408 57.0402 47.3735L57.4026 48.3507C57.1517 48.4456 56.9526 48.5445 56.8053 48.6474C56.6579 48.7502 56.5186 48.9006 56.3832 49.1023C56.2836 49.2527 56.2318 49.3832 56.2239 49.49C56.2199 49.6008 56.2597 49.6839 56.3473 49.7393C56.431 49.7946 56.5186 49.7986 56.6102 49.7472C56.7017 49.6957 56.8053 49.5889 56.9247 49.4228C57.1756 49.0707 57.4783 48.8056 57.8327 48.6276C58.1871 48.4496 58.5694 48.4971 58.9795 48.7661C59.2583 48.948 59.4574 49.1775 59.5808 49.4544C59.7043 49.7313 59.7521 50.0201 59.7162 50.3287C59.6804 50.6373 59.5729 50.93 59.3857 51.2109C59.1985 51.4918 58.9477 51.741 58.6331 51.9586L58.641 51.9665Z" fill="#191919"/>
<path d="M25.0477 14.3288L26.4056 13.6167L26.8596 14.5147L24.5897 15.6501L22.8535 12.4773L25.0835 11.2708L25.5853 12.1094L24.1875 12.8413L24.3906 13.1973L25.5375 12.5762L25.9676 13.3319L24.8366 13.9648L25.0397 14.3248L25.0477 14.3288Z" fill="#191919"/>
<path d="M27.9786 13.949C27.6919 13.9332 27.429 13.866 27.1981 13.7433L27.445 12.964C27.8392 13.0906 28.1896 13.1025 28.5002 12.9996C28.6197 12.96 28.7113 12.9046 28.767 12.8374C28.8228 12.7701 28.8387 12.695 28.8148 12.6159C28.7869 12.5367 28.7232 12.4972 28.6237 12.4932C28.5201 12.4932 28.3648 12.513 28.1578 12.5565C27.8033 12.6317 27.5087 12.6198 27.2737 12.5249C27.0388 12.4299 26.8715 12.2361 26.772 11.9394C26.6963 11.7178 26.6844 11.5003 26.7361 11.2866C26.7839 11.073 26.8914 10.8871 27.0547 10.7249C27.218 10.5627 27.4211 10.4361 27.668 10.357C27.9069 10.2778 28.1578 10.2462 28.4246 10.262C28.6914 10.2778 28.9422 10.3451 29.1772 10.4638L28.9343 11.2154C28.7392 11.1561 28.5759 11.1244 28.4405 11.1165C28.3051 11.1086 28.1498 11.1363 27.9746 11.1956C27.8432 11.2392 27.7516 11.2906 27.6998 11.3539C27.648 11.4172 27.6321 11.4844 27.656 11.5596C27.6799 11.6308 27.7317 11.6743 27.8073 11.6822C27.883 11.6941 27.9985 11.6783 28.1498 11.6348C28.4644 11.5398 28.771 11.524 29.0657 11.5794C29.3604 11.6387 29.5674 11.8444 29.6869 12.1965C29.7665 12.4339 29.7785 12.6633 29.7267 12.8849C29.671 13.1064 29.5635 13.3003 29.3962 13.4704C29.2329 13.6405 29.0259 13.7631 28.7869 13.8422C28.544 13.9253 28.2772 13.957 27.9865 13.9411L27.9786 13.949Z" fill="#191919"/>
<path d="M33.1075 10.0365L32.0563 10.2462L32.5421 12.9007L31.6182 13.1064L31.1284 10.4321L30.1528 10.6299L29.9178 9.70815L32.8607 9.11475L33.1036 10.0365H33.1075Z" fill="#191919"/>
<path d="M33.7168 12.6713C33.6053 12.5764 33.5456 12.4538 33.5297 12.3153C33.5217 12.2204 33.5376 12.1294 33.5854 12.0463C33.6292 11.9593 33.6929 11.892 33.7766 11.8366C33.8562 11.7852 33.9478 11.7535 34.0434 11.7456C34.1827 11.7338 34.3062 11.7694 34.4097 11.8524C34.5133 11.9355 34.573 12.0542 34.5889 12.2085C34.6009 12.3588 34.565 12.4933 34.4734 12.6081C34.3818 12.7228 34.2624 12.7861 34.115 12.8019C33.9637 12.8138 33.8323 12.7742 33.7208 12.6793L33.7168 12.6713Z" fill="#191919"/>
<path d="M39.8413 12.8612L37.1255 12.6159V11.8089C37.3525 11.7139 37.5954 11.5834 37.8622 11.4172C38.129 11.2511 38.356 11.0731 38.5431 10.8871C38.7303 10.7012 38.8338 10.5311 38.8458 10.3808C38.8537 10.2977 38.8338 10.2265 38.7821 10.1671C38.7343 10.1078 38.6626 10.0722 38.567 10.0643C38.4635 10.0564 38.3719 10.088 38.2883 10.1592C38.2046 10.2344 38.1569 10.3293 38.1449 10.4441L37.2728 10.2146C37.3087 9.9812 37.3923 9.77153 37.5277 9.58955C37.6631 9.40758 37.8343 9.27307 38.0454 9.17813C38.2564 9.08714 38.4834 9.05153 38.7303 9.07527C38.9732 9.099 39.1843 9.17021 39.3595 9.29681C39.5347 9.4234 39.6621 9.5856 39.7418 9.78736C39.8254 9.98911 39.8533 10.2146 39.8294 10.4599C39.8055 10.7289 39.69 10.9821 39.4909 11.2274C39.2918 11.4726 39.025 11.6942 38.6945 11.8999L39.8134 11.9632L39.8294 12.8572L39.8413 12.8612Z" fill="#191919"/>
<path d="M40.8807 12.9088C40.6816 12.6912 40.5462 12.4261 40.4745 12.1136C40.4028 11.8011 40.4108 11.4688 40.4904 11.1206C40.5701 10.7765 40.7134 10.4798 40.9125 10.2345C41.1116 9.9892 41.3506 9.81909 41.6253 9.71623C41.9001 9.61733 42.1868 9.60151 42.4855 9.66876C42.7802 9.73601 43.0231 9.87448 43.2102 10.0802C43.4014 10.2859 43.5248 10.5391 43.5845 10.8437C43.6443 11.1483 43.6323 11.4767 43.5487 11.8288C43.4651 12.1888 43.3257 12.4973 43.1306 12.7466C42.9355 12.9958 42.7085 13.1738 42.4456 13.2806C42.1828 13.3835 41.9041 13.4033 41.6174 13.336C41.3227 13.2688 41.0758 13.1263 40.8767 12.9088H40.8807ZM42.1191 12.2402C42.2107 12.1848 42.2943 12.1017 42.366 11.991C42.4377 11.8802 42.4895 11.7496 42.5253 11.6072C42.581 11.3778 42.581 11.176 42.5253 11.0138C42.4695 10.8516 42.374 10.7488 42.2346 10.7171C42.135 10.6934 42.0355 10.7052 41.9399 10.7527C41.8443 10.8002 41.7607 10.8754 41.6851 10.9782C41.6134 11.0811 41.5576 11.2037 41.5258 11.3461C41.4899 11.5004 41.478 11.6468 41.4939 11.7813C41.5098 11.9198 41.5497 12.0305 41.6094 12.1215C41.6691 12.2125 41.7488 12.2679 41.8483 12.2916C41.9399 12.3114 42.0275 12.2916 42.1191 12.2402Z" fill="#191919"/>
<path d="M46.1172 14.7404L43.5766 13.7554L43.8036 12.98C44.0425 12.9523 44.3173 12.8929 44.6159 12.8059C44.9186 12.7189 45.1854 12.6121 45.4164 12.4855C45.6513 12.3589 45.7947 12.2244 45.8504 12.0819C45.8823 12.0068 45.8823 11.9316 45.8504 11.8604C45.8185 11.7892 45.7588 11.7378 45.6712 11.7022C45.5756 11.6666 45.4801 11.6705 45.3765 11.718C45.277 11.7655 45.2053 11.8446 45.1615 11.9514L44.389 11.4925C44.4885 11.2749 44.6279 11.1008 44.8071 10.9624C44.9863 10.8239 45.1933 10.7408 45.4203 10.7092C45.6473 10.6775 45.8783 10.7092 46.1092 10.8002C46.3362 10.8872 46.5194 11.0178 46.6508 11.1879C46.7822 11.358 46.8619 11.5479 46.8818 11.7655C46.9057 11.983 46.8698 12.2046 46.7782 12.434C46.6787 12.6833 46.4995 12.8969 46.2407 13.0749C45.9818 13.2529 45.6632 13.3954 45.2889 13.5022L46.3442 13.874L46.1132 14.7364L46.1172 14.7404Z" fill="#191919"/>
<path d="M48.0884 11.6941L49.0122 12.1767L49.6255 12.5723L47.957 15.7055L46.9933 15.1991L48.2039 12.9165L47.6105 12.6079L48.0924 11.6941H48.0884Z" fill="#191919"/>
<path d="M47.8494 27.7556C48.1999 28.08 48.237 28.4071 47.9609 28.7367C48.176 29.0967 48.387 29.4567 48.5981 29.8128C48.6499 29.8998 48.7494 30.0224 48.7255 30.0857C48.4667 30.691 48.9525 31.0471 49.1715 31.4941C49.3467 31.8501 49.3905 32.1666 48.8888 32.3051C49.0361 32.76 49.1874 33.1952 49.3109 33.6383C49.3945 33.9389 49.3985 34.1882 49.1237 34.4769C48.9605 34.6471 49.0521 35.106 49.1038 35.4224C49.1516 35.7033 49.3228 35.9605 49.4025 36.2413C49.5857 36.9099 49.4463 37.0484 48.6817 36.9218C48.7494 37.5983 48.849 38.2589 48.8689 38.9196C48.8808 39.3389 48.7653 39.7622 48.7136 40.1816C48.6459 40.7315 48.5145 41.2932 48.7454 41.8233C49.2432 42.9429 49.2472 44.106 49.1476 45.2849C49.1277 45.5024 49.06 45.7319 48.9525 45.9218C48.4786 46.7842 47.9729 47.6268 47.495 48.4853C46.8141 49.7156 45.8743 50.5583 44.2894 50.5464C44.3969 50.7719 44.4726 50.9183 44.5363 51.0686C44.5841 51.1794 44.6717 51.3099 44.6438 51.4088C44.5283 51.8519 44.5283 52.2673 44.7354 52.6866C44.7633 52.746 44.6279 52.9556 44.5323 52.9873C44.4328 53.0229 44.2297 52.9635 44.1739 52.8805C43.8554 52.4176 43.493 51.9824 43.712 51.3257C43.7916 51.0884 43.6045 50.7719 43.5527 50.4871C43.5009 50.2101 43.489 49.9332 43.8793 49.9293C45.6553 49.9095 46.6389 48.869 47.3039 47.3697C47.5388 46.8396 47.9928 46.3886 48.1601 45.8427C48.3791 45.1345 48.5861 44.3473 48.4866 43.6391C48.3671 42.7965 47.9052 42.0013 47.6264 41.1745C47.5627 40.9886 47.6464 40.7512 47.6703 40.5416C47.6822 40.4347 47.718 40.3279 47.722 40.2211C47.7419 39.7147 47.7698 39.2202 48.0366 38.7613C48.1003 38.6506 47.9809 38.4172 47.9132 38.251C47.7897 37.9424 47.6065 37.6536 47.945 37.353C47.9968 37.3055 47.9689 37.1315 47.9371 37.0286C47.6742 36.1741 47.6742 36.1741 48.4906 36.0317C48.391 35.5965 48.2238 35.1613 48.2039 34.7222C48.1879 34.3227 48.3313 33.9152 48.4069 33.5117H48.5782C48.3751 33.0765 48.1879 32.6295 47.9609 32.2062C47.7618 31.8304 47.8176 31.5851 48.2158 31.4704C48.2516 30.8216 47.1167 30.5367 47.722 29.698C47.5826 29.4844 47.4751 29.1996 47.2681 29.0374C46.8101 28.6734 46.8738 28.1196 46.6906 27.6607C46.6588 27.5736 46.8499 27.3402 46.9933 27.2572C47.4552 26.9842 47.9649 26.7864 48.4149 26.5016C49.5538 25.7776 50.2467 24.6897 50.8082 23.4989C51.4732 22.0945 51.9471 20.6427 51.9152 19.0642C51.9033 18.4352 51.744 18.3798 51.1427 18.6013C49.3507 19.266 47.9848 20.5398 46.5991 21.7622C45.8783 22.3991 45.2969 23.1824 44.6518 23.9024C44.604 23.9539 44.5682 24.0488 44.5204 24.0528C44.2456 24.0805 43.9629 24.1042 43.6881 24.0963C43.4333 24.0923 43.1784 24.0488 42.9315 23.9578C41.5656 24.4879 41.4581 24.4642 41.4143 23.5306C40.9763 23.6493 40.6046 23.4172 40.2993 22.8343C40.0524 23.0361 39.8015 23.226 39.5746 23.4317C39.1724 23.7956 39.025 23.7798 38.7502 23.309C38.6467 23.131 38.5511 22.9451 38.4476 22.7631C38.4317 22.7354 38.4038 22.7117 38.4078 22.7196C38.1888 22.7591 38.0016 22.7987 37.8144 22.8224C37.7348 22.8343 37.6233 22.775 37.5795 22.8106C37.0339 23.2853 36.6756 23.0242 36.3729 22.5218C36.349 22.4822 36.2933 22.4585 36.2455 22.4229C35.7995 22.6523 35.5128 23.495 34.8478 22.7789C34.1549 23.4871 34.1509 23.4871 33.2151 23.0321C32.9961 23.6216 32.9523 23.6374 32.3032 23.3565C32.1359 23.6057 32.0164 23.9618 31.7815 24.0725C31.5904 24.1596 31.2638 23.946 30.9134 23.8391C30.8537 23.946 30.778 24.2427 30.5829 24.389C30.4316 24.5038 30.1369 24.4286 29.8342 24.4444C29.6696 24.6712 29.3511 24.5829 28.8785 24.1794C28.8307 24.5552 28.8108 24.9073 28.7391 25.2475C28.7033 25.4136 28.5799 25.56 28.4962 25.7143C28.3489 25.6154 28.1299 25.5521 28.0582 25.4176C27.2817 23.8747 26.1667 22.6009 24.8844 21.4695C23.3194 20.0928 21.6908 18.7715 19.7315 18.004C18.1705 17.3947 17.8599 17.6282 18.071 19.1591C18.4732 22.0945 19.5683 24.7174 22.1089 26.466C23.0925 27.1424 24.2712 27.538 25.3663 28.0523C25.88 28.2937 25.8919 28.3846 25.5733 28.8317C25.2667 29.2629 24.8088 29.6308 24.9561 30.2835C24.988 30.422 24.7411 30.6158 24.6415 30.7899C24.4544 31.1143 24.2791 31.4466 24.0721 31.8224C24.8685 32.0717 24.6415 32.6255 24.534 33.1161C24.4583 33.4721 24.3269 33.7925 24.7251 34.0734C24.8128 34.1328 24.7689 34.4176 24.7411 34.5956C24.6734 35.0506 24.4384 35.4501 24.765 35.9684C24.9521 36.2611 24.7451 36.7952 24.7172 37.2304C24.8884 37.3134 25.1672 37.3569 25.2627 37.5191C25.3663 37.6853 25.3026 37.9583 25.2986 38.1877C25.2946 38.5002 25.2747 38.8128 25.2707 39.1253C25.2707 39.2084 25.2826 39.3508 25.3225 39.3666C25.8999 39.5605 25.6371 39.9917 25.6331 40.3635C25.6331 40.6958 25.3941 41.0835 25.872 41.3288C25.9596 41.3763 25.9158 41.6849 25.9238 41.8708C25.9317 42.1082 25.9238 42.3495 25.9238 42.5947C26.537 42.4167 26.7441 42.6224 26.6127 43.2317C26.5689 43.4295 26.5609 43.6312 26.533 43.8449C27.4051 43.7143 27.4848 43.7816 27.4927 44.6361C27.4927 44.826 27.4927 45.0198 27.5087 45.2097C27.5365 45.5024 27.5843 45.7912 27.6202 46.084C28.4206 45.7635 28.4365 45.7754 28.4484 46.6299C28.9502 46.713 28.9462 47.0057 28.8944 47.4765C28.8188 48.153 28.6237 48.873 29.0458 49.5455C29.1254 49.6721 29.0298 49.9095 29.002 50.0954C28.9024 50.7758 28.4524 51.4009 28.7153 52.1486C28.7511 52.2475 28.4644 52.5521 28.2812 52.6075C27.9905 52.6985 27.8909 52.4532 27.9148 52.1961C27.9586 51.7332 27.9348 51.2427 28.094 50.8194C28.2931 50.2853 28.2892 49.7947 28.1498 49.2686C28.098 49.0708 28.1139 48.8572 28.11 48.6475C28.094 48.2361 28.2613 47.789 27.7794 47.4923C27.6879 47.4369 27.7038 47.2075 27.6719 47.0611C26.9591 46.8752 26.8994 46.7328 26.756 44.8972C25.9755 45.0791 25.864 44.9446 25.7963 43.7183C25.207 43.7499 25.1791 43.3583 25.1791 42.9033C25.1791 42.5591 25.3543 42.1358 24.8924 41.9064C24.8486 41.8866 24.8167 41.7679 24.8366 41.7165C25.1911 40.68 24.1915 39.7662 24.5579 38.7297C24.5738 38.6862 24.5539 38.6268 24.5499 38.5754C23.9287 38.3618 23.7933 38.1165 23.9606 37.3886C24.0323 37.0721 24.1039 36.7991 23.8132 36.538C23.7216 36.4589 23.7256 36.2493 23.7256 36.0989C23.7177 35.0427 23.7256 33.9904 23.7256 32.9341C23.2756 32.9539 23.1283 32.8035 23.2279 32.3169C23.2677 32.1152 23.3354 31.9134 23.415 31.7275C23.857 30.691 24.303 29.6545 24.757 28.6062C23.9805 28.2343 23.1203 27.8466 22.2761 27.4194C20.6753 26.6123 19.6041 25.2989 18.7997 23.7442C17.9674 22.1341 17.3184 20.4844 17.3184 18.6251C17.3184 16.9912 18.2024 16.829 19.4448 17.1732C21.0855 17.6282 22.4474 18.633 23.7615 19.6576C25.3941 20.9315 26.8795 22.3675 28.0224 24.0132L28.5281 23.0677L29.5396 23.6176C29.6949 23.5385 29.878 23.0954 30.2683 23.4594C30.9054 22.502 30.9851 22.4862 31.451 23.0875C31.8333 22.7591 32.1718 22.3596 32.6018 22.1222C33.2151 21.786 33.5297 22.5218 34.0394 22.6365C34.496 22.08 34.9287 21.9468 35.3376 22.2369C35.5606 22.0747 35.7796 21.9126 36.0026 21.7543C36.5441 21.3706 36.6437 21.3943 36.9344 21.9679C36.9822 22.0589 37.03 22.1499 37.1056 22.2923C37.3645 22.0906 37.5835 21.8413 37.8622 21.7227C38.0534 21.6396 38.3958 21.6515 38.5392 21.7701C38.8379 22.0194 39.0489 22.3675 39.2998 22.68C39.5268 22.5416 39.7538 22.3794 39.9967 22.2567C40.6935 21.9007 40.817 21.9521 41.0997 22.68C41.3586 22.506 41.5975 22.2923 41.8762 22.1736C42.0355 22.1064 42.2944 22.1222 42.4337 22.2132C42.5253 22.2726 42.5134 22.5416 42.4815 22.7077C42.4417 22.9213 42.3382 23.1231 42.2107 23.4673C42.4656 23.2972 42.597 23.1706 42.7523 23.1112C42.9196 23.0479 43.1426 22.9767 43.2819 23.04C43.927 23.3407 44.0306 23.2576 44.5761 22.7512C45.8982 21.5249 47.2362 20.3064 48.6578 19.1987C49.3945 18.6251 50.2945 18.2334 51.1706 17.8695C52.0028 17.5253 52.624 18.0079 52.632 18.8941C52.6599 21.6831 51.6524 24.0963 49.8365 26.1693C49.291 26.7943 48.5264 27.2295 47.8415 27.7635L47.8494 27.7556Z" fill="#191919"/>
</g>
<defs>
<clipPath id="clip0_1_12">
<rect width="446" height="72" fill="white"/>
</clipPath>
</defs>
</svg>
