<svg width="41" height="41" viewBox="0 0 41 41" fill="none" xmlns="http://www.w3.org/2000/svg">
<path d="M20.1616 40.059C31.2966 40.059 40.3233 31.0915 40.3233 20.0295C40.3233 8.96751 31.2966 0 20.1616 0C9.02667 0 0 8.96751 0 20.0295C0 31.0915 9.02667 40.059 20.1616 40.059Z" fill="white"/>
<path d="M20.1616 37.7304C15.4025 37.7304 10.9271 35.8882 7.56167 32.5448C4.19622 29.2014 2.3418 24.7553 2.3418 20.0275C2.3418 15.2996 4.19622 10.8535 7.56167 7.51012C10.9271 4.16674 15.4025 2.32446 20.1616 2.32446C24.9206 2.32446 29.396 4.16674 32.7615 7.51012C36.1269 10.8535 37.9814 15.2996 37.9814 20.0275C37.9814 24.7553 36.1269 29.2014 32.7615 32.5448C29.396 35.8882 24.9206 37.7304 20.1616 37.7304ZM20.1616 2.8219C10.6103 2.8241 2.84251 10.5432 2.84251 20.0297C2.84251 29.5161 10.6125 37.2352 20.1616 37.2352C29.7107 37.2352 37.4806 29.5161 37.4806 20.0297C37.4806 10.5432 29.7107 2.8241 20.1616 2.8241V2.8219Z" fill="#191919"/>
<path d="M7.69243 27.819L8.27069 28.6664L7.65033 29.0626L6.68213 27.5747L8.92206 26.1594L9.35631 26.7449L7.69243 27.819Z" fill="#191919"/>
<path d="M9.48707 31.2015L9.79946 30.6843L9.24114 30.0592L8.65845 30.3145L8.19318 29.6938L10.8629 28.7144L11.3681 29.2382L10.0963 31.6571L9.48707 31.1993V31.2015ZM9.9479 29.7466L10.1894 30.0394L10.5239 29.4913L9.94569 29.7466H9.9479Z" fill="#191919"/>
<path d="M14.0999 31.2239L13.7166 31.8028L12.0704 32.2496L12.9943 32.8087L12.5844 33.4338L10.7433 32.2408L11.1377 31.6597L12.6974 31.2041L11.9375 30.6495L12.3208 30.0574L14.1021 31.2217L14.0999 31.2239Z" fill="#191919"/>
<path d="M16.6965 32.4672L15.3206 33.4181L14.9529 34.4394L14.2394 34.1906L14.6693 33.0989L14.2439 31.6616L15.0747 31.6484L15.2896 32.5927L16.0739 32.038L16.6987 32.465L16.6965 32.4672Z" fill="#191919"/>
<path d="M18.9165 34.6089L19.9445 34.6595L19.8891 35.3902L18.11 35.2626L18.3205 32.6323L19.0516 32.6411L18.9142 34.6067L18.9165 34.6089Z" fill="#191919"/>
<path d="M21.4045 34.6093L22.4259 34.4905L22.4946 35.219L20.7177 35.3863L20.4873 32.7582L21.2096 32.646L21.4023 34.6071L21.4045 34.6093Z" fill="#191919"/>
<path d="M25.2574 34.5828L24.9384 34.0699L24.1231 34.2746L24.0854 34.9063L23.3166 35.0318L23.6666 32.2255L24.3668 32.0208L25.9442 34.2548L25.2552 34.5828H25.2574ZM24.1696 33.5065L24.5418 33.4272L24.205 32.8792L24.1696 33.5065Z" fill="#191919"/>
<path d="M29.3739 32.3946L28.7558 32.804L28.1532 31.9346L28.3481 33.0219L27.8319 33.3345L26.9235 32.6588L27.4508 33.5656L26.8083 33.9134L25.4834 31.6397L26.1813 31.2633L27.473 32.1789L27.2182 30.592L27.9072 30.2002L29.3739 32.3946Z" fill="#191919"/>
<path d="M31.492 30.5459L30.9691 30.24L30.3443 30.799L30.6057 31.3757L29.9854 31.8423L28.9773 29.1967L29.5024 28.6904L31.9462 29.9362L31.4897 30.5459H31.492ZM30.0253 30.0991L30.3177 29.857L29.7638 29.529L30.0253 30.1013V30.0991Z" fill="#191919"/>
<path d="M32.6264 28.9126C32.4514 29.0314 32.2719 29.1085 32.0814 29.1437L31.8709 28.5824C32.1567 28.479 32.3649 28.3293 32.4979 28.129C32.5488 28.052 32.5754 27.9793 32.5776 27.9133C32.5776 27.8473 32.5555 27.7989 32.5045 27.7636C32.4536 27.7306 32.3982 27.735 32.3384 27.7791C32.2785 27.8231 32.1988 27.9045 32.0969 28.0256C31.9263 28.2281 31.749 28.3535 31.5696 28.4041C31.3901 28.4548 31.204 28.4174 31.0135 28.2897C30.8694 28.195 30.7631 28.074 30.6966 27.9287C30.6302 27.7835 30.6058 27.6272 30.6235 27.4599C30.6435 27.2926 30.7055 27.1297 30.8118 26.9713C30.9138 26.8172 31.0467 26.6873 31.2084 26.5773C31.3702 26.4672 31.5452 26.3946 31.7357 26.3572L31.9373 26.9008C31.7978 26.9537 31.687 27.0087 31.605 27.0659C31.523 27.1231 31.4455 27.2068 31.3702 27.319C31.3148 27.4027 31.286 27.4753 31.2815 27.5347C31.2793 27.5964 31.3015 27.6426 31.3502 27.6734C31.3967 27.7042 31.4455 27.7064 31.4964 27.6778C31.5474 27.6492 31.605 27.5898 31.6715 27.4973C31.8111 27.3014 31.9794 27.154 32.1766 27.0549C32.3738 26.9559 32.5865 26.9823 32.8147 27.1319C32.9698 27.2332 33.0806 27.3609 33.1493 27.5149C33.2179 27.669 33.2445 27.8297 33.2246 28.0014C33.2047 28.173 33.1448 28.3359 33.0407 28.4922C32.9366 28.6485 32.797 28.7871 32.622 28.9082L32.6264 28.9126Z" fill="#191919"/>
<path d="M13.9359 7.9724L14.6914 7.57621L14.944 8.07585L13.6811 8.70755L12.7151 6.94231L13.9559 6.271L14.235 6.73762L13.4574 7.14481L13.5704 7.3429L14.2084 6.99734L14.4477 7.41774L13.8185 7.76991L13.9315 7.9702L13.9359 7.9724Z" fill="#191919"/>
<path d="M15.5665 7.76085C15.407 7.75204 15.2608 7.71463 15.1323 7.64639L15.2696 7.21279C15.489 7.28322 15.684 7.28983 15.8568 7.2326C15.9232 7.21059 15.9742 7.17977 16.0052 7.14236C16.0362 7.10494 16.0451 7.06312 16.0318 7.0191C16.0163 6.97508 15.9808 6.95307 15.9255 6.95086C15.8679 6.95086 15.7814 6.96187 15.6662 6.98608C15.469 7.0279 15.3051 7.0213 15.1744 6.96847C15.0437 6.91565 14.9506 6.8078 14.8952 6.64272C14.8531 6.51946 14.8465 6.3984 14.8753 6.27955C14.9019 6.16069 14.9617 6.05724 15.0525 5.967C15.1434 5.87676 15.2564 5.80632 15.3937 5.7623C15.5267 5.71828 15.6662 5.70067 15.8147 5.70948C15.9631 5.71828 16.1027 5.7557 16.2334 5.82173L16.0983 6.23993C15.9897 6.20691 15.8989 6.1893 15.8235 6.1849C15.7482 6.1805 15.6618 6.19591 15.5643 6.22892C15.4912 6.25313 15.4402 6.28175 15.4114 6.31696C15.3826 6.35218 15.3738 6.3896 15.3871 6.43142C15.4004 6.47104 15.4292 6.49525 15.4713 6.49965C15.5134 6.50625 15.5776 6.49745 15.6618 6.47324C15.8368 6.42041 16.0074 6.41161 16.1714 6.44242C16.3353 6.47544 16.4505 6.58989 16.517 6.78579C16.5613 6.91785 16.568 7.04551 16.5392 7.16877C16.5081 7.29203 16.4483 7.39988 16.3553 7.49452C16.2644 7.58917 16.1492 7.6574 16.0163 7.70142C15.8811 7.74764 15.7327 7.76525 15.571 7.75645L15.5665 7.76085Z" fill="#191919"/>
<path d="M18.4202 5.58413L17.8353 5.70079L18.1056 7.17769L17.5916 7.29214L17.3191 5.80424L16.7763 5.91429L16.6456 5.40145L18.2829 5.07129L18.418 5.58413H18.4202Z" fill="#191919"/>
<path d="M18.7592 7.04973C18.6971 6.9969 18.6639 6.92867 18.655 6.85164C18.6506 6.79881 18.6594 6.74819 18.686 6.70196C18.7104 6.65354 18.7459 6.61612 18.7924 6.58531C18.8367 6.5567 18.8877 6.53909 18.9408 6.53469C19.0184 6.52808 19.0871 6.54789 19.1447 6.59411C19.2023 6.64034 19.2355 6.70637 19.2444 6.79221C19.251 6.87585 19.2311 6.95068 19.1801 7.01451C19.1292 7.07834 19.0627 7.11356 18.9807 7.12236C18.8965 7.12897 18.8234 7.10696 18.7614 7.05413L18.7592 7.04973Z" fill="#191919"/>
<path d="M22.1667 7.15579L20.6556 7.01932V6.57031C20.7819 6.51749 20.9171 6.44485 21.0655 6.35241C21.214 6.25996 21.3402 6.16092 21.4444 6.05747C21.5485 5.95402 21.6061 5.85937 21.6128 5.77573C21.6172 5.72951 21.6061 5.68989 21.5773 5.65688C21.5507 5.62386 21.5108 5.60405 21.4577 5.59965C21.4001 5.59525 21.3491 5.61286 21.3026 5.65248C21.2561 5.6943 21.2295 5.74712 21.2228 5.81095L20.7376 5.68329C20.7576 5.55343 20.8041 5.43677 20.8794 5.33553C20.9547 5.23428 21.05 5.15944 21.1674 5.10662C21.2849 5.05599 21.4111 5.03618 21.5485 5.04939C21.6837 5.0626 21.8011 5.10221 21.8986 5.17265C21.9961 5.24308 22.067 5.33332 22.1113 5.44558C22.1578 5.55783 22.1733 5.68329 22.16 5.81975C22.1467 5.96943 22.0825 6.11029 21.9717 6.24676C21.8609 6.38322 21.7125 6.50648 21.5286 6.62093L22.1511 6.65615L22.16 7.15359L22.1667 7.15579Z" fill="#191919"/>
<path d="M22.745 7.18206C22.6342 7.061 22.5589 6.91353 22.519 6.73965C22.4791 6.56577 22.4835 6.38088 22.5278 6.18719C22.5721 5.9957 22.6519 5.83062 22.7627 5.69416C22.8735 5.55769 23.0064 5.46305 23.1593 5.40582C23.3121 5.35079 23.4717 5.34199 23.6378 5.37941C23.8018 5.41683 23.9369 5.49386 24.0411 5.60832C24.1474 5.72277 24.2161 5.86364 24.2493 6.03312C24.2826 6.2026 24.2759 6.38528 24.2294 6.58118C24.1829 6.78147 24.1053 6.95315 23.9968 7.09182C23.8882 7.23048 23.7619 7.32953 23.6157 7.38896C23.4695 7.44619 23.3144 7.45719 23.1548 7.41977C22.9909 7.38236 22.8535 7.30312 22.7427 7.18206H22.745ZM23.434 6.81009C23.485 6.77927 23.5315 6.73305 23.5714 6.67142C23.6112 6.60979 23.6401 6.53716 23.66 6.45792C23.691 6.33026 23.691 6.218 23.66 6.12776C23.629 6.03752 23.5758 5.98029 23.4983 5.96268C23.4429 5.94948 23.3875 5.95608 23.3343 5.98249C23.2811 6.00891 23.2346 6.05073 23.1925 6.10795C23.1526 6.16518 23.1216 6.23341 23.1039 6.31265C23.0839 6.39849 23.0773 6.47993 23.0862 6.55476C23.095 6.6318 23.1172 6.69343 23.1504 6.74405C23.1836 6.79468 23.228 6.82549 23.2833 6.8387C23.3343 6.8497 23.383 6.8387 23.434 6.81009Z" fill="#191919"/>
<path d="M25.6585 8.20116L24.2449 7.6531L24.3712 7.2217C24.5042 7.20629 24.657 7.17327 24.8232 7.12485C24.9916 7.07643 25.14 7.017 25.2685 6.94657C25.3992 6.87613 25.479 6.8013 25.51 6.72206C25.5277 6.68024 25.5277 6.63842 25.51 6.5988C25.4923 6.55918 25.4591 6.53057 25.4103 6.51076C25.3571 6.49095 25.304 6.49315 25.2464 6.51956C25.191 6.54598 25.1511 6.59 25.1267 6.64943L24.6969 6.3941C24.7523 6.27305 24.8298 6.1762 24.9295 6.09916C25.0292 6.02213 25.1445 5.97591 25.2707 5.9583C25.397 5.94069 25.5255 5.9583 25.654 6.00892C25.7803 6.05734 25.8822 6.12998 25.9553 6.22462C26.0285 6.31927 26.0728 6.42492 26.0839 6.54598C26.0971 6.66703 26.0772 6.79029 26.0262 6.91795C25.9709 7.05662 25.8712 7.17548 25.7271 7.27452C25.5831 7.37357 25.4059 7.45281 25.1976 7.51224L25.7848 7.71913L25.6562 8.19896L25.6585 8.20116Z" fill="#191919"/>
<path d="M26.7552 6.50635L27.2692 6.77488L27.6104 6.99498L26.682 8.73821L26.1459 8.45647L26.8194 7.18647L26.4893 7.01479L26.7574 6.50635H26.7552Z" fill="#191919"/>
<path d="M26.6222 15.4426C26.8172 15.6231 26.8379 15.8051 26.6843 15.9885C26.8039 16.1888 26.9213 16.3891 27.0388 16.5872C27.0676 16.6356 27.1229 16.7038 27.1096 16.7391C26.9656 17.0758 27.2359 17.2739 27.3578 17.5226C27.4553 17.7207 27.4797 17.8968 27.2005 17.9738C27.2825 18.227 27.3667 18.4691 27.4353 18.7156C27.4819 18.8829 27.4841 19.0215 27.3312 19.1822C27.2404 19.2769 27.2913 19.5322 27.3201 19.7083C27.3467 19.8645 27.442 20.0076 27.4863 20.1639C27.5882 20.5358 27.5107 20.6129 27.0853 20.5425C27.1229 20.9188 27.1783 21.2864 27.1894 21.654C27.1961 21.8873 27.1318 22.1228 27.103 22.3561C27.0653 22.6621 26.9922 22.9746 27.1207 23.2695C27.3977 23.8924 27.3999 24.5395 27.3445 25.1955C27.3334 25.3165 27.2958 25.4442 27.2359 25.5498C26.9723 26.0297 26.6909 26.4985 26.425 26.9761C26.0462 27.6606 25.5233 28.1294 24.6415 28.1228C24.7013 28.2483 24.7434 28.3297 24.7789 28.4134C24.8055 28.475 24.8542 28.5476 24.8387 28.6027C24.7744 28.8492 24.7744 29.0803 24.8897 29.3136C24.9052 29.3466 24.8298 29.4633 24.7767 29.4809C24.7213 29.5007 24.6083 29.4677 24.5773 29.4215C24.4 29.1639 24.1984 28.9218 24.3203 28.5565C24.3646 28.4244 24.2604 28.2483 24.2316 28.0898C24.2028 27.9358 24.1962 27.7817 24.4133 27.7795C25.4015 27.7685 25.9487 27.1896 26.3187 26.3554C26.4494 26.0605 26.702 25.8095 26.795 25.5058C26.9169 25.1118 27.0321 24.6738 26.9767 24.2798C26.9103 23.811 26.6532 23.3686 26.4982 22.9086C26.4627 22.8051 26.5092 22.6731 26.5225 22.5564C26.5292 22.497 26.5491 22.4375 26.5513 22.3781C26.5624 22.0964 26.5779 21.8213 26.7264 21.5659C26.7618 21.5043 26.6953 21.3744 26.6577 21.282C26.589 21.1103 26.4871 20.9496 26.6754 20.7824C26.7042 20.756 26.6887 20.6591 26.671 20.6019C26.5247 20.1265 26.5247 20.1265 26.9789 20.0472C26.9235 19.8051 26.8305 19.563 26.8194 19.3187C26.8105 19.0964 26.8903 18.8697 26.9324 18.6452H27.0277C26.9147 18.403 26.8105 18.1543 26.6843 17.9188C26.5735 17.7097 26.6045 17.5732 26.8261 17.5094C26.846 17.1484 26.2146 16.99 26.5513 16.5233C26.4738 16.4045 26.414 16.246 26.2988 16.1558C26.044 15.9533 26.0794 15.6451 25.9775 15.3898C25.9598 15.3414 26.0661 15.2115 26.1459 15.1653C26.4029 15.0134 26.6865 14.9034 26.9368 14.7449C27.5705 14.3421 27.956 13.7368 28.2684 13.0743C28.6384 12.2929 28.902 11.4852 28.8843 10.6069C28.8777 10.257 28.789 10.2262 28.4545 10.3494C27.4575 10.7192 26.6976 11.4279 25.9265 12.1081C25.5255 12.4624 25.2021 12.8982 24.8431 13.2988C24.8165 13.3274 24.7966 13.3803 24.77 13.3825C24.6171 13.3979 24.4598 13.4111 24.307 13.4067C24.1652 13.4045 24.0234 13.3803 23.886 13.3296C23.1261 13.6246 23.0662 13.6114 23.0419 13.0919C22.7982 13.158 22.5914 13.0288 22.4215 12.7045C22.2842 12.8168 22.1446 12.9224 22.0183 13.0369C21.7945 13.2394 21.7125 13.2306 21.5597 12.9687C21.5021 12.8696 21.4489 12.7662 21.3913 12.6649C21.3824 12.6495 21.3669 12.6363 21.3691 12.6407C21.2473 12.6627 21.1431 12.6847 21.039 12.6979C20.9947 12.7045 20.9327 12.6715 20.9083 12.6913C20.6048 12.9555 20.4054 12.8102 20.237 12.5307C20.2237 12.5086 20.1927 12.4954 20.1661 12.4756C19.9179 12.6033 19.7584 13.0721 19.3884 12.6737C19.0029 13.0677 19.0007 13.0677 18.48 12.8146C18.3582 13.1425 18.3338 13.1514 17.9727 12.9951C17.8796 13.1337 17.8131 13.3318 17.6824 13.3935C17.5761 13.4419 17.3944 13.323 17.1994 13.2636C17.1662 13.323 17.1241 13.4881 17.0155 13.5695C16.9314 13.6334 16.7674 13.5916 16.599 13.6004C16.5074 13.7266 16.3302 13.6774 16.0673 13.4529C16.0407 13.662 16.0296 13.8579 15.9897 14.0472C15.9698 14.1396 15.9011 14.2211 15.8546 14.3069C15.7726 14.2519 15.6508 14.2167 15.6109 14.1418C15.1788 13.2834 14.5585 12.5747 13.8451 11.9452C12.9744 11.1792 12.0682 10.4441 10.9781 10.0171C10.1096 9.6781 9.93681 9.80797 10.0542 10.6598C10.278 12.2929 10.8873 13.7522 12.3008 14.7251C12.8481 15.1015 13.5039 15.3216 14.1132 15.6077C14.399 15.742 14.4056 15.7926 14.2284 16.0413C14.0578 16.2812 13.803 16.4859 13.8849 16.8491C13.9027 16.9261 13.7653 17.034 13.7099 17.1308C13.6058 17.3113 13.5083 17.4962 13.3931 17.7053C13.8362 17.844 13.7099 18.1521 13.6501 18.425C13.608 18.6231 13.5349 18.8014 13.7564 18.9577C13.8052 18.9907 13.7808 19.1492 13.7653 19.2482C13.7276 19.5014 13.5969 19.7237 13.7786 20.012C13.8827 20.1749 13.7675 20.472 13.752 20.7141C13.8473 20.7604 14.0024 20.7846 14.0555 20.8748C14.1132 20.9673 14.0777 21.1191 14.0755 21.2468C14.0733 21.4207 14.0622 21.5946 14.06 21.7684C14.06 21.8147 14.0666 21.8939 14.0888 21.9027C14.41 22.0105 14.2638 22.2505 14.2616 22.4574C14.2616 22.6422 14.1287 22.8579 14.3945 22.9944C14.4433 23.0208 14.4189 23.1925 14.4233 23.296C14.4278 23.428 14.4233 23.5623 14.4233 23.6987C14.7645 23.5997 14.8797 23.7142 14.8066 24.0531C14.7823 24.1632 14.7778 24.2754 14.7623 24.3943C15.2475 24.3216 15.2918 24.3591 15.2963 24.8345C15.2963 24.9401 15.2963 25.048 15.3051 25.1536C15.3206 25.3165 15.3472 25.4772 15.3672 25.6401C15.8125 25.4618 15.8214 25.4684 15.828 25.9438C16.1072 25.99 16.1049 26.1529 16.0761 26.4148C16.034 26.7912 15.9255 27.1918 16.1603 27.566C16.2046 27.6364 16.1515 27.7685 16.136 27.8719C16.0806 28.2505 15.8302 28.5983 15.9764 29.0143C15.9964 29.0693 15.8369 29.2388 15.7349 29.2696C15.5732 29.3202 15.5178 29.1837 15.5311 29.0407C15.5555 28.7832 15.5422 28.5102 15.6308 28.2747C15.7416 27.9776 15.7394 27.7046 15.6618 27.4119C15.633 27.3019 15.6419 27.183 15.6397 27.0663C15.6308 26.8374 15.7239 26.5887 15.4558 26.4236C15.4048 26.3928 15.4137 26.2652 15.396 26.1837C14.9994 26.0803 14.9661 26.001 14.8864 24.9798C14.4521 25.081 14.3901 25.0062 14.3524 24.3238C14.0245 24.3415 14.009 24.1235 14.009 23.8704C14.009 23.6789 14.1065 23.4434 13.8495 23.3158C13.8251 23.3048 13.8074 23.2387 13.8185 23.2101C14.0157 22.6334 13.4596 22.125 13.6634 21.5483C13.6723 21.5241 13.6612 21.4911 13.659 21.4625C13.3133 21.3436 13.238 21.2072 13.3311 20.8022C13.3709 20.6261 13.4108 20.4742 13.2491 20.329C13.1981 20.2849 13.2003 20.1683 13.2003 20.0846C13.1959 19.497 13.2003 18.9115 13.2003 18.3238C12.95 18.3348 12.868 18.2512 12.9234 17.9804C12.9456 17.8682 12.9832 17.7559 13.0275 17.6525C13.2735 17.0758 13.5216 16.4991 13.7742 15.9159C13.3421 15.709 12.8636 15.4933 12.3939 15.2555C11.5032 14.8065 10.9072 14.0758 10.4597 13.2108C9.99663 12.315 9.6355 11.3971 9.6355 10.3626C9.6355 9.4536 10.1274 9.36335 10.8186 9.55485C11.7314 9.80797 12.4891 10.367 13.2203 10.9371C14.1287 11.6458 14.9551 12.4448 15.5909 13.3604L15.8723 12.8344L16.4351 13.1403C16.5215 13.0963 16.6234 12.8498 16.8405 13.0523C17.195 12.5197 17.2393 12.5108 17.4985 12.8454C17.7112 12.6627 17.8996 12.4404 18.1388 12.3083C18.48 12.1213 18.6551 12.5307 18.9387 12.5945C19.1927 12.2849 19.4335 12.2108 19.6609 12.3722C19.785 12.2819 19.9069 12.1917 20.0309 12.1037C20.3322 11.8902 20.3876 11.9034 20.5494 12.2225C20.576 12.2731 20.6025 12.3238 20.6446 12.403C20.7886 12.2907 20.9105 12.1521 21.0656 12.086C21.1719 12.0398 21.3625 12.0464 21.4422 12.1125C21.6084 12.2511 21.7258 12.4448 21.8654 12.6187C21.9917 12.5417 22.118 12.4514 22.2531 12.3832C22.6409 12.1851 22.7095 12.2137 22.8668 12.6187C23.0109 12.5219 23.1438 12.403 23.2989 12.337C23.3875 12.2995 23.5315 12.3084 23.6091 12.359C23.66 12.392 23.6534 12.5417 23.6356 12.6341C23.6135 12.753 23.5559 12.8652 23.485 13.0567C23.6268 12.9621 23.6999 12.8916 23.7863 12.8586C23.8794 12.8234 24.0034 12.7838 24.081 12.819C24.4399 12.9863 24.4975 12.94 24.801 12.6583C25.5366 11.976 26.281 11.2981 27.072 10.6818C27.4819 10.3626 27.9826 10.1447 28.47 9.94223C28.9331 9.75074 29.2787 10.0193 29.2831 10.5123C29.2986 12.064 28.7381 13.4067 27.7278 14.56C27.4243 14.9078 26.9989 15.1499 26.6178 15.447L26.6222 15.4426Z" fill="#191919"/>
</svg>
