<svg width="247" height="41" viewBox="0 0 247 41" fill="none" xmlns="http://www.w3.org/2000/svg">
<path d="M8.63594 23.0668L20.4061 22.7855V31.2105L0 31.2496L0.161663 0.919547L8.516 0.398682L8.63594 23.0668Z" fill="white"/>
<path d="M37.5189 31.0906V29.567C36.1526 30.9864 34.1318 31.6948 31.4539 31.6948C29.686 31.6948 28.0668 31.1791 26.5936 30.1504C25.1204 29.1217 23.9548 27.7362 23.0996 25.9991C22.2417 24.2594 21.8141 22.3869 21.8141 20.3816C21.8141 18.3762 22.2756 16.5506 23.1987 14.8239C24.1217 13.0972 25.3342 11.7222 26.8335 10.6909C28.3328 9.66214 29.8998 9.14648 31.5321 9.14648C34.21 9.14648 36.1239 9.85486 37.2764 11.2742V9.78975H44.1862L45.1509 31.0958H37.5189V31.0906ZM36.3533 23.1656C37.0235 22.4832 37.3572 21.5535 37.3572 20.3763C37.3572 19.1992 37.0026 18.3163 36.2934 17.647C35.5841 16.9777 34.6663 16.6443 33.5425 16.6443C32.4969 16.6443 31.6208 16.9933 30.9115 17.6887C30.2023 18.384 29.8477 19.2539 29.8477 20.2956C29.8477 20.9102 30.0094 21.5196 30.3301 22.1212C30.6508 22.7228 31.0993 23.2177 31.6755 23.6057C32.2518 23.9938 32.901 24.1865 33.6233 24.1865C34.7758 24.1865 35.6858 23.8453 36.3559 23.163L36.3533 23.1656Z" fill="white"/>
<path d="M65.8803 24.5511L66.3627 31.0905H47.7636L47.5629 25.2334L55.075 16.5662L48.1652 16.8058V9.58398H65.278L66.0003 16.2042L58.9705 24.7907L65.8803 24.5511Z" fill="white"/>
<path d="M91.0659 9.22469L85.0009 30.2885C83.9032 33.9267 82.3908 36.6196 80.4613 38.3723C78.5344 40.125 76.3233 41.0001 73.8331 41.0001C72.8423 41.0001 71.7237 40.8334 70.4799 40.4975C69.2335 40.1615 68.0367 39.7422 66.8842 39.2344L69.9767 31.3693C70.2166 31.7443 70.7876 32.1506 71.6846 32.5933C72.5815 33.0335 73.2856 33.2548 73.794 33.2548C74.6519 33.2548 75.3533 33.0204 75.9035 32.5517C76.451 32.0829 76.9021 31.4344 77.2489 30.6062L67.3666 9.86275L76.0025 9.78202L80.0598 20.4546L82.7924 9.70128L91.0685 9.21948L91.0659 9.22469Z" fill="white"/>
<path d="M114.165 23.0667L125.936 22.7854V31.2104L105.529 31.2495L105.691 0.916862L114.045 0.395996L114.165 23.0641V23.0667Z" fill="white"/>
<path d="M139.693 31.2312C138.608 31.5385 137.288 31.6922 135.737 31.6922C134.29 31.6922 133.012 31.3432 131.901 30.6478C130.791 29.9525 129.925 28.9759 129.31 27.718C128.694 26.4601 128.387 25.0173 128.387 23.3844L128.467 2.68257L136.342 0.755371L136.381 20.7358C136.381 21.4858 136.561 22.1135 136.923 22.6213C137.286 23.1292 137.76 23.3844 138.35 23.3844C139.127 23.3844 139.716 23.1578 140.118 22.702L142.005 29.9655C141.549 30.502 140.78 30.9213 139.695 31.2286L139.693 31.2312Z" fill="white"/>
<path d="M157.992 31.0906V29.567C156.625 30.9864 154.605 31.6948 151.927 31.6948C150.159 31.6948 148.54 31.1791 147.066 30.1504C145.593 29.1217 144.428 27.7362 143.572 25.9991C142.715 24.2594 142.287 22.3869 142.287 20.3816C142.287 18.3762 142.749 16.5506 143.672 14.8239C144.595 13.0972 145.807 11.7222 147.306 10.6909C148.806 9.66214 150.373 9.14648 152.005 9.14648C154.683 9.14648 156.597 9.85486 157.749 11.2742V9.78975H164.659L165.624 31.0958H157.992V31.0906ZM156.826 23.1656C157.496 22.4832 157.83 21.5535 157.83 20.3763C157.83 19.1992 157.475 18.3163 156.766 17.647C156.057 16.9777 155.139 16.6443 154.015 16.6443C152.97 16.6443 152.094 16.9933 151.384 17.6887C150.675 18.384 150.321 19.2539 150.321 20.2956C150.321 20.9102 150.482 21.5196 150.803 22.1212C151.124 22.7228 151.572 23.2177 152.148 23.6057C152.725 23.9938 153.374 24.1865 154.096 24.1865C155.249 24.1865 156.159 23.8453 156.829 23.163L156.826 23.1656Z" fill="white"/>
<path d="M198.441 10.7298C199.808 11.9461 200.504 13.7196 200.53 16.0453L200.368 30.6504L192.655 31.252L192.575 19.0559C192.575 17.9855 192.361 17.1834 191.933 16.6495C191.506 16.1156 190.916 15.8474 190.165 15.8474C189.414 15.8474 188.867 16.0948 188.439 16.5896C188.012 17.0844 187.73 17.772 187.594 18.6548L187.474 31.1322L179.762 31.2129L179.681 19.457C179.681 18.3866 179.459 17.5792 179.018 17.0297C178.578 16.4828 177.994 16.2068 177.271 16.2068C176.442 16.2068 175.819 16.5219 175.404 17.1495C174.99 17.7772 174.755 18.6548 174.7 19.7773L175.063 31.2129H167.23V10.1074L174.38 9.86782L174.419 10.9903C175.141 10.4564 175.999 10.0423 176.99 9.74541C177.981 9.45112 178.998 9.30528 180.043 9.30528C182.747 9.30528 184.757 10.1074 186.069 11.7117C186.765 10.8549 187.735 10.1751 188.982 9.66468C190.228 9.15684 191.545 8.90161 192.937 8.90161C195.239 8.90161 197.075 9.51102 198.441 10.7272V10.7298Z" fill="white"/>
<path d="M217.924 31.0906V29.567C216.558 30.9864 214.537 31.6948 211.859 31.6948C210.092 31.6948 208.472 31.1791 206.999 30.1504C205.526 29.1217 204.36 27.7362 203.505 25.9991C202.647 24.2594 202.22 22.3869 202.22 20.3816C202.22 18.3762 202.681 16.5506 203.604 14.8239C204.527 13.0972 205.74 11.7222 207.239 10.6909C208.738 9.66214 210.305 9.14648 211.938 9.14648C214.616 9.14648 216.529 9.85486 217.682 11.2742V9.78975H224.592L225.557 31.0958H217.924V31.0906ZM216.759 23.1656C217.429 22.4832 217.763 21.5535 217.763 20.3763C217.763 19.1992 217.408 18.3163 216.699 17.647C215.99 16.9777 215.072 16.6443 213.948 16.6443C212.902 16.6443 212.026 16.9933 211.317 17.6887C210.608 18.384 210.253 19.2539 210.253 20.2956C210.253 20.9102 210.415 21.5196 210.736 22.1212C211.056 22.7228 211.505 23.2177 212.081 23.6057C212.657 23.9938 213.307 24.1865 214.029 24.1865C215.181 24.1865 216.091 23.8453 216.762 23.163L216.759 23.1656Z" fill="white"/>
<path d="M243.193 17.1288C242.229 16.4595 241.345 15.9647 240.542 15.6444C239.739 15.324 238.748 15.1626 237.569 15.1626C235.827 15.1626 234.959 15.5897 234.959 16.4465C234.959 16.7955 235.139 17.0273 235.501 17.1497C235.864 17.2695 236.62 17.371 237.77 17.4518C240.205 17.6393 242.208 18.2799 243.775 19.379C245.342 20.4754 246.124 22.0015 246.124 23.9522C246.124 25.3168 245.702 26.5799 244.86 27.7441C244.015 28.9082 242.852 29.838 241.366 30.5333C239.879 31.2287 238.213 31.5776 236.364 31.5776C234.516 31.5776 232.79 31.2417 231.103 30.575C229.416 29.9057 228.104 29.0228 227.165 27.9264L231.142 23.0328C231.812 23.5954 232.73 24.0563 233.893 24.4157C235.058 24.7777 236.054 24.9574 236.886 24.9574C237.608 24.9574 238.184 24.8246 238.612 24.5564C239.04 24.2881 239.254 23.9287 239.254 23.473C239.254 23.1266 239.105 22.9052 238.813 22.8115C238.518 22.7177 237.822 22.6188 236.724 22.5094C233.966 22.163 231.864 21.4807 230.417 20.4624C228.97 19.4467 228.247 18.1081 228.247 16.4491C228.247 15.1391 228.67 13.9281 229.512 12.8187C230.357 11.7092 231.486 10.8264 232.907 10.1701C234.325 9.51377 235.853 9.18823 237.486 9.18823C239.118 9.18823 240.745 9.49033 242.448 10.0919C244.148 10.6935 245.48 11.4618 246.445 12.3994L243.191 17.134L243.193 17.1288Z" fill="white"/>
</svg>
