<svg width="80" height="80" viewBox="0 0 80 80" fill="none" xmlns="http://www.w3.org/2000/svg">
<path d="M40 0C17.92 0 0 17.92 0 40C0 62.08 17.92 80 40 80C62.08 80 80 62.08 80 40C80 17.92 62.08 0 40 0ZM69.84 28.48L58.72 33.08C56.68 27.64 52.4 23.32 46.92 21.32L51.52 10.2C59.92 13.4 66.6 20.08 69.84 28.48ZM40 52C33.36 52 28 46.64 28 40C28 33.36 33.36 28 40 28C46.64 28 52 33.36 52 40C52 46.64 46.64 52 40 52ZM28.52 10.16L33.2 21.28C27.68 23.28 23.32 27.64 21.28 33.16L10.16 28.52C13.4 20.08 20.08 13.4 28.52 10.16ZM10.16 51.48L21.28 46.88C23.32 52.4 27.64 56.72 33.16 58.72L28.48 69.84C20.08 66.6 13.4 59.92 10.16 51.48ZM51.52 69.84L46.92 58.72C52.4 56.68 56.72 52.36 58.72 46.84L69.84 51.52C66.6 59.92 59.92 66.6 51.52 69.84Z" fill="#EA3EF7"/>
</svg>
